<svg xmlns="http://www.w3.org/2000/svg" viewBox="0 0 1920 1080">
<defs>
<filter id="sp-diffuse" x="-50%" y="-50%" width="200%" height="200%" color-interpolation-filters="sRGB">
<feGaussianBlur stdDeviation="90"/>
</filter>
<pattern id="lin-h" width="4" height="4" patternUnits="userSpaceOnUse">
<rect width="4" height="1" fill="#000" opacity="0.10"/>
</pattern>
<pattern id="lin-d" width="8" height="8" patternUnits="userSpaceOnUse" patternTransform="rotate(63)">
<rect width="8" height="1.5" fill="#000" opacity="0.06"/>
</pattern>
</defs>
<rect width="1920" height="1080" fill="#242424"/>
<path d="M 1422.3,984.8 C 1422.5,991.4 1425.4,1014.2 1426.4,1021.0 C 1427.5,1027.9 1432.6,1052.1 1433.9,1059.4 C 1435.2,1066.7 1439.8,1092.9 1440.7,1100.7 C 1441.6,1108.4 1443.4,1136.1 1443.4,1144.1 C 1443.3,1152.2 1441.1,1180.4 1439.9,1188.6 C 1438.6,1196.7 1432.2,1224.8 1429.8,1232.8 C 1427.3,1240.7 1416.8,1268.1 1413.1,1275.7 C 1409.5,1283.3 1394.9,1309.1 1390.0,1316.1 C 1385.1,1323.1 1366.2,1346.2 1360.1,1352.1 C 1354.0,1358.0 1330.6,1376.5 1323.3,1380.9 C 1316.0,1385.3 1288.7,1397.4 1280.5,1399.8 C 1272.3,1402.3 1242.4,1407.1 1233.8,1407.6 C 1225.1,1408.0 1194.7,1406.1 1186.2,1405.1 C 1177.6,1404.0 1148.5,1397.9 1140.5,1396.1 C 1132.4,1394.3 1105.6,1387.3 1098.1,1385.7 C 1090.6,1384.1 1065.8,1379.4 1058.7,1378.6 C 1051.5,1377.7 1027.2,1376.6 1020.1,1376.6 C 1012.9,1376.6 987.8,1378.0 980.4,1378.3 C 973.0,1378.5 946.6,1379.5 939.1,1379.1 C 931.5,1378.6 904.9,1375.5 897.6,1373.6 C 890.3,1371.7 865.6,1362.0 859.1,1358.2 C 852.5,1354.5 831.7,1337.9 826.4,1332.5 C 821.0,1327.1 804.8,1305.7 800.5,1299.4 C 796.2,1293.1 783.3,1270.2 779.6,1263.9 C 775.8,1257.5 763.5,1236.1 759.4,1230.3 C 755.4,1224.6 740.5,1205.9 735.5,1200.7 C 730.5,1195.5 711.1,1178.8 705.0,1173.8 C 698.9,1168.8 675.7,1151.7 669.0,1146.2 C 662.2,1140.8 638.0,1120.7 631.7,1114.3 C 625.3,1107.9 604.4,1083.7 599.6,1076.1 C 594.7,1068.6 581.2,1040.4 578.7,1032.1 C 576.2,1023.7 572.2,993.4 572.4,984.8 C 572.5,976.1 578.0,946.1 580.5,937.7 C 583.1,929.3 596.0,901.3 600.2,893.6 C 604.5,885.9 622.0,860.8 627.3,853.9 C 632.6,847.1 652.3,824.9 658.1,818.9 C 663.8,812.8 684.3,793.2 690.3,787.9 C 696.2,782.5 717.0,765.2 723.0,760.5 C 729.1,755.8 750.0,740.6 756.1,736.5 C 762.1,732.3 783.0,718.9 789.0,715.1 C 794.9,711.3 815.2,698.8 820.9,695.1 C 826.6,691.3 845.7,678.3 851.1,674.2 C 856.5,670.1 874.6,655.0 879.8,650.2 C 885.1,645.5 903.0,627.6 908.5,622.3 C 914.0,616.9 933.4,597.2 939.4,591.7 C 945.5,586.2 967.7,567.2 974.6,562.4 C 981.6,557.7 1007.1,542.9 1014.8,539.8 C 1022.5,536.7 1050.5,529.4 1058.7,528.6 C 1066.8,527.7 1095.4,529.2 1103.4,530.7 C 1111.4,532.2 1138.7,541.4 1146.2,544.6 C 1153.8,547.8 1178.8,561.7 1185.8,565.7 C 1192.8,569.7 1216.1,584.4 1222.9,588.4 C 1229.6,592.3 1252.8,605.2 1259.7,608.6 C 1266.7,612.0 1291.2,622.6 1298.6,625.7 C 1305.9,628.8 1332.2,638.9 1339.7,642.3 C 1347.2,645.7 1373.6,658.4 1380.6,662.8 C 1387.6,667.3 1410.8,685.1 1416.5,691.1 C 1422.1,697.1 1438.7,721.0 1442.2,728.5 C 1445.7,736.0 1453.6,764.7 1454.7,773.1 C 1455.8,781.6 1455.1,812.3 1454.2,820.9 C 1453.4,829.6 1447.0,859.4 1445.0,867.6 C 1443.1,875.8 1435.1,902.8 1433.2,910.3 C 1431.3,917.7 1425.6,941.9 1424.6,948.8 C 1423.6,955.6 1422.2,978.2 1422.3,984.8 Z" fill="#d47d7d" filter="url(#sp-diffuse)"/><path d="M 1245.5,81.9 C 1245.9,88.9 1248.3,113.1 1249.5,120.4 C 1250.6,127.7 1255.9,153.4 1257.6,161.3 C 1259.2,169.1 1266.0,197.5 1267.5,206.0 C 1269.0,214.5 1273.5,245.1 1273.8,253.9 C 1274.0,262.7 1271.9,293.5 1269.9,301.8 C 1267.8,310.1 1256.2,337.6 1251.4,344.4 C 1246.6,351.3 1224.9,372.0 1217.6,376.7 C 1210.4,381.4 1181.1,393.4 1172.3,395.8 C 1163.5,398.2 1130.9,402.2 1121.8,402.8 C 1112.7,403.4 1081.1,402.7 1072.6,402.5 C 1064.2,402.4 1036.6,401.2 1029.2,401.5 C 1021.9,401.8 998.9,404.2 992.5,405.8 C 986.2,407.3 966.3,415.4 960.5,418.4 C 954.7,421.5 935.3,434.9 929.4,439.0 C 923.5,443.2 902.5,459.4 896.0,463.9 C 889.5,468.4 865.7,484.1 858.4,488.0 C 851.1,491.9 824.5,503.8 816.6,506.4 C 808.7,508.9 780.3,515.1 772.1,515.9 C 763.8,516.7 735.1,516.1 727.0,515.0 C 718.9,513.9 691.2,506.7 683.6,503.8 C 676.0,500.9 650.7,487.6 643.9,483.1 C 637.1,478.6 615.2,460.2 609.5,454.3 C 603.8,448.4 586.1,425.9 581.6,419.1 C 577.2,412.2 563.9,387.0 560.6,379.6 C 557.3,372.2 548.1,345.9 545.8,338.4 C 543.4,330.9 537.0,305.1 535.1,297.8 C 533.3,290.6 527.7,266.3 525.9,259.6 C 524.1,252.8 517.7,230.3 515.5,223.9 C 513.4,217.5 505.0,196.1 502.4,189.9 C 499.7,183.6 489.6,162.2 486.6,155.8 C 483.7,149.4 473.0,126.9 470.2,120.1 C 467.4,113.3 458.0,89.1 455.8,81.9 C 453.5,74.6 447.1,48.8 445.8,41.2 C 444.5,33.6 441.9,6.8 441.7,-1.0 C 441.5,-8.8 442.6,-36.1 443.5,-44.0 C 444.3,-51.9 449.0,-79.1 450.9,-86.9 C 452.8,-94.7 460.9,-121.5 463.9,-129.0 C 466.8,-136.5 478.8,-162.0 483.0,-169.0 C 487.2,-175.9 504.0,-198.6 509.6,-204.4 C 515.2,-210.2 537.2,-228.1 544.3,-232.3 C 551.3,-236.4 578.0,-247.7 586.1,-249.9 C 594.2,-252.1 623.8,-256.1 632.3,-256.5 C 640.8,-257.0 670.4,-255.2 678.6,-254.5 C 686.7,-253.9 713.8,-250.0 721.1,-249.5 C 728.4,-248.9 751.8,-247.7 758.2,-248.4 C 764.6,-249.2 785.0,-254.7 790.9,-257.5 C 796.8,-260.3 816.7,-274.0 822.9,-278.8 C 829.0,-283.5 851.3,-303.4 858.4,-309.1 C 865.5,-314.8 891.9,-335.8 900.0,-340.8 C 908.1,-345.9 938.3,-361.4 947.1,-364.2 C 955.9,-367.0 987.2,-371.7 995.8,-371.2 C 1004.4,-370.7 1033.3,-362.4 1040.8,-358.4 C 1048.3,-354.5 1071.7,-334.7 1077.5,-328.2 C 1083.4,-321.6 1100.4,-294.7 1104.7,-286.8 C 1109.0,-278.9 1121.1,-250.2 1124.4,-242.3 C 1127.7,-234.4 1137.7,-207.7 1140.8,-200.6 C 1143.9,-193.4 1154.7,-170.5 1158.2,-164.2 C 1161.6,-157.9 1174.5,-137.8 1178.4,-131.9 C 1182.2,-126.1 1196.3,-106.6 1200.1,-100.8 C 1203.9,-94.9 1216.7,-74.1 1219.8,-67.9 C 1223.0,-61.6 1232.2,-38.9 1234.2,-32.1 C 1236.2,-25.4 1240.8,-1.4 1241.7,5.6 C 1242.6,12.6 1243.8,36.9 1244.2,43.9 C 1244.5,50.9 1245.0,74.8 1245.5,81.9 Z" fill="#bb3f3f" filter="url(#sp-diffuse)"/>
<rect width="1920" height="1080" fill="url(#lin-h)"/>
<rect width="1920" height="1080" fill="url(#lin-d)"/>
</svg>
